
        <svg xmlns="http://www.w3.org/2000/svg" xmlns:xlink="http://www.w3.org/1999/xlink" version="1.1" width="3187.5" 
        height="1515.3129935642498" viewBox="0 0 3187.5 1515.3129935642498">
			
			<g transform="scale(9.374999999999998) translate(10, 10)">
				<defs id="SvgjsDefs1398"></defs><g id="SvgjsG1399" featureKey="T6b0uQ-0" transform="matrix(1.7553191489361701,0,0,1.7553191489361701,72.73404255319149,-49.148936170212764)" fill="#ff847c"><title xmlns="http://www.w3.org/2000/svg">Mountains</title><desc xmlns="http://www.w3.org/2000/svg">Created with Sketch.</desc><g xmlns="http://www.w3.org/2000/svg" stroke="none" stroke-width="1" fill="none" fill-rule="evenodd"><g fill="#ff847c"><path d="M65.9670617,73 L45.369746,56.6092715 L39.1533369,51.8410596 L41.8648371,63.4635762 L34.6341698,61.6754967 L23.5161375,67.2695039 L16.2562235,62.8675497 L3,71.2119205 L18.4440966,53.9725516 L23.5161375,61.9735099 L37.9182291,45.7706932 L45.369746,53.9725516 L51.5062894,45.7706932 L60.83634,28 L67.5364435,35.4562349 L74.4870181,47.6347519 L80.3730903,42.2911169 C91.3589883,56.6158535 96.9008502,64.1780647 96.9986759,64.9777505 C97.0965015,65.7774363 91.7739269,60.7031751 81.0309521,49.7549669 L79.8258408,64.9777505 L68.678562,51.8410596 L60.83634,36.9403974 L57.5312831,47.6347519 L67.5364435,60.1854305 L55.1210607,55.7152318 L65.9670617,73 Z"></path></g></g></g><g id="SvgjsG1400" featureKey="i9e7OP-0" transform="matrix(1.8523448128874287,0,0,1.8523448128874287,-0.3617640145961612,90.19120015382975)" fill="#fecea8"><path d="M3.6426 17.3242 l1.5332 0 l0 -9.541 l-1.7969 0 l0 1.9141 l-3.1836 0 l0 -4.502 l13.467 0 l0 4.502 l-3.2031 0 l0 -1.9141 l-2.041 0 l0 9.541 l1.5625 0 l0 2.6758 l-6.3379 0 l0 -2.6758 z M15.06834375 5.195 l7.832 0 q1.142578125 0 2.041015625 0.341796875 t1.5137 0.91309 t0.94238 1.3281 t0.32715 1.5771 q0 0.751953125 -0.1611328125 1.318359375 t-0.46875 1.0059 t-0.75684 0.77637 t-1.0254 0.61035 q0.498046875 0.25390625 0.87890625 0.7763671875 t0.57617 1.3525 l0.49805 1.9238 l1.2207 0 l0.019531 2.8809 l-4.2969 0 l-0.58594 -3.5156 q-0.087890625 -0.625 -0.2685546875 -1.079101563 t-0.4834 -0.74219 t-0.7373 -0.4248 t-1.0303 -0.13672 l-1.2598 0 l0 3.2227 l1.3574 0 l0 2.6758 l-6.1328 0 l0 -2.6758 l1.5332 0 l0 -9.4434 l-1.5332 0 l0 -2.6855 z M19.84374375 7.881 l0 3.584 l1.9434 0 q0.556640625 0 1.000976563 -0.1025390625 t0.76172 -0.32227 t0.48828 -0.55176 t0.1709 -0.79102 q0 -0.859375 -0.615234375 -1.337890625 t-1.8066 -0.47852 l-1.9434 0 z M37.62695 17.3242 l1.4746 0 l-0.66406 -2.1289 l-4.5508 0 l-0.66406 2.1289 l1.5625 0 l0 2.6758 l-5.6152 0 l0 -2.6758 l1.1035 0 l4.0332 -12.129 l3.916 0 l3.9453 12.129 l1.0742 0 l0 2.6758 l-5.6152 0 l0 -2.6758 z M34.65825 12.6953 l2.9883 0 l-1.5039 -4.8145 z M50.888634375 5.195 l6.3379 0 l0 2.6855 l-1.3184 0 l-3.9551 12.119 l-4.0039 0 l-3.8379 -12.119 l-1.4258 0 l0 -2.6855 l6.3477 0 l0 2.6855 l-1.582 0 l2.5781 8.3984 l2.5684 -8.3984 l-1.709 0 l0 -2.6855 z M58.535140625 5.195 l11.777 0 l0 5.0488 l-3.1836 0 l0 -2.0996 l-3.7988 0 l0 2.9199 l2.9395 0 l0 2.832 l-2.9395 0 l0 3.4277 l3.7988 0 l0 -2.627 l3.1836 0 l0 5.3027 l-11.777 0 l0 -2.6758 l1.5527 0 l0 -9.1797 l-1.5527 0 l0 -2.9492 z M72.011703125 5.195 l6.3379 0 l0 2.6855 l-1.5625 0 l0 9.4434 l3.2227 0 q0.126953125 0 0.2490234375 -0.0732421875 t0.21484 -0.19043 t0.15137 -0.25391 t0.058594 -0.26367 l0 -1.9824 l3.1641 0 l0 5.4395 l-11.836 0 l0 -2.6758 l1.5332 0 l0 -9.4434 l-1.5332 0 l0 -2.6855 z M88.857420625 5.195 l5.6836 0 q1.015625 0 1.948242188 0.263671875 t1.7383 0.74219 t1.4648 1.1475 t1.1279 1.4893 t0.72266 1.7676 t0.25391 1.9727 t-0.25391 1.9727 t-0.72266 1.7725 t-1.1279 1.5039 t-1.4648 1.1621 t-1.7383 0.74707 t-1.9482 0.26367 l-5.6836 0 l0 -2.6758 l1.1816 0 l0 -9.4434 l-1.1816 0 l0 -2.6855 z M93.281240625 7.881 l0 9.4434 l1.2402 0 q0.791015625 0 1.494140625 -0.37109375 t1.2207 -1.0107 t0.82031 -1.5039 t0.30273 -1.8604 q0 -0.986328125 -0.302734375 -1.845703125 t-0.82031 -1.4941 t-1.2207 -0.99609 t-1.4941 -0.36133 l-1.2402 0 z M103.496078125 5.195 l6.3379 0 l0 2.6758 l-1.5625 0 l0 9.4531 l1.5625 0 l0 2.6758 l-6.3379 0 l0 -2.6758 l1.5332 0 l0 -9.4531 l-1.5332 0 l0 -2.6758 z M119.023434375 17.3242 l1.4746 0 l-0.66406 -2.1289 l-4.5508 0 l-0.66406 2.1289 l1.5625 0 l0 2.6758 l-5.6152 0 l0 -2.6758 l1.1035 0 l4.0332 -12.129 l3.916 0 l3.9453 12.129 l1.0742 0 l0 2.6758 l-5.6152 0 l0 -2.6758 z M116.054734375 12.6953 l2.9883 0 l-1.5039 -4.8145 z M125.96678125 5.195 l7.832 0 q1.142578125 0 2.041015625 0.341796875 t1.5137 0.91309 t0.94238 1.3281 t0.32715 1.5771 q0 0.751953125 -0.1611328125 1.318359375 t-0.46875 1.0059 t-0.75684 0.77637 t-1.0254 0.61035 q0.498046875 0.25390625 0.87890625 0.7763671875 t0.57617 1.3525 l0.49805 1.9238 l1.2207 0 l0.019531 2.8809 l-4.2969 0 l-0.58594 -3.5156 q-0.087890625 -0.625 -0.2685546875 -1.079101563 t-0.4834 -0.74219 t-0.7373 -0.4248 t-1.0303 -0.13672 l-1.2598 0 l0 3.2227 l1.3574 0 l0 2.6758 l-6.1328 0 l0 -2.6758 l1.5332 0 l0 -9.4434 l-1.5332 0 l0 -2.6855 z M130.74218125 7.881 l0 3.584 l1.9434 0 q0.556640625 0 1.000976563 -0.1025390625 t0.76172 -0.32227 t0.48828 -0.55176 t0.1709 -0.79102 q0 -0.859375 -0.615234375 -1.337890625 t-1.8066 -0.47852 l-1.9434 0 z M140.9081875 5.195 l6.3379 0 l0 2.6758 l-1.5625 0 l0 9.4531 l1.5625 0 l0 2.6758 l-6.3379 0 l0 -2.6758 l1.5332 0 l0 -9.4531 l-1.5332 0 l0 -2.6758 z M148.81834375 5.195 l11.777 0 l0 5.0488 l-3.1836 0 l0 -2.0996 l-3.7988 0 l0 2.9199 l2.9395 0 l0 2.832 l-2.9395 0 l0 3.4277 l3.7988 0 l0 -2.627 l3.1836 0 l0 5.3027 l-11.777 0 l0 -2.6758 l1.5527 0 l0 -9.1797 l-1.5527 0 l0 -2.9492 z M169.41410625 9.365 q-0.048828125 -0.341796875 -0.2392578125 -0.64453125 t-0.48828 -0.52246 t-0.67383 -0.34668 t-0.78613 -0.12695 q-0.37109375 0 -0.693359375 0.078125 t-0.56152 0.23926 t-0.38086 0.41504 t-0.1416 0.60547 q0 0.439453125 0.1904296875 0.6982421875 t0.48828 0.4248 t0.65918 0.26367 t0.70313 0.21484 l2.6855 0.89844 q0.556640625 0.1953125 1.044921875 0.537109375 t0.84473 0.83008 t0.56152 1.123 t0.20508 1.4258 q0 1.07421875 -0.3955078125 1.962890625 t-1.1084 1.5234 t-1.709 0.98633 t-2.207 0.35156 q-0.849609375 0 -1.606445313 -0.1904296875 t-1.3818 -0.55176 t-1.0938 -0.86426 t-0.73242 -1.1377 l-1.0059 0 l0 -2.9395 l3.5352 0 l0 0.60547 q0 0.439453125 0.1416015625 0.810546875 t0.4248 0.64453 t0.71289 0.4248 t1.0059 0.15137 q0.87890625 0 1.337890625 -0.4052734375 t0.45898 -1.1279 q0 -0.37109375 -0.1611328125 -0.6201171875 t-0.41504 -0.41992 t-0.56641 -0.28809 t-0.61523 -0.21484 l-2.2363 -0.72266 q-0.634765625 -0.1953125 -1.225585938 -0.546875 t-1.0449 -0.87891 t-0.72266 -1.2354 t-0.26855 -1.6162 q0 -1.0546875 0.390625 -1.879882813 t1.0938 -1.3916 t1.6699 -0.85938 t2.1191 -0.29297 q0.908203125 0 1.6796875 0.2099609375 t1.3818 0.56152 t1.0352 0.80566 t0.64941 0.94238 l0.97656 0 l0 2.9492 l-3.5352 0 l0 -0.85938 z"></path></g><g id="SvgjsG1401" featureKey="9oQUJT-0" transform="matrix(0.2102654072255983,0,0,0.2102654072255983,27.974768175195894,136.84774566465558)" fill="#ff847c"><path d="M1.98 5.84 l3.22 11.76 l0.04 0 l3.48 -11.76 l1.88 0 l3.46 11.76 l0.04 0 l3.28 -11.76 l1.76 0 l-4.16 14.16 l-1.82 0 l-3.5 -12 l-0.04 0 l-3.52 12 l-1.84 0 l-4.14 -14.16 l1.86 0 z M40.144000000000005 5.84 l0 1.56 l-7.22 0 l0 4.44 l6.74 0 l0 1.56 l-6.74 0 l0 5.04 l7.58 0 l0 1.56 l-9.26 0 l0 -14.16 l8.9 0 z M78.61200000000001 5.84 l0 1.56 l-4.68 0 l0 12.6 l-1.68 0 l0 -12.6 l-4.68 0 l0 -1.56 l11.04 0 z M94.67600000000002 5.84 q2.78 0 4.09 0.92 t1.31 2.96 q0 1.5 -0.89 2.47 t-2.65 1.29 l4.02 6.52 l-2.06 0 l-3.84 -6.36 l-2.16 0 l0 6.36 l-1.68 0 l0 -14.16 l3.86 0 z M94.49600000000001 12.08 q1.98 0 2.88 -0.55 t0.9 -1.79 q0 -1.2 -0.81 -1.77 t-2.51 -0.57 l-2.46 0 l0 4.68 l2 0 z M119.44000000000001 5.84 l6.02 14.16 l-1.96 0 l-1.44 -3.48 l-7.08 0 l-1.46 3.48 l-1.9 0 l6.24 -14.16 l1.58 0 z M118.58000000000001 8 l-2.94 6.96 l5.78 0 l-2.8 -6.96 l-0.04 0 z M137.52400000000003 5.84 l4.36 11.64 l0.04 0 l4.5 -11.64 l1.78 0 l-5.54 14.16 l-1.62 0 l-5.42 -14.16 l1.9 0 z M168.90800000000004 5.84 l0 1.56 l-7.22 0 l0 4.44 l6.74 0 l0 1.56 l-6.74 0 l0 5.04 l7.58 0 l0 1.56 l-9.26 0 l0 -14.16 l8.9 0 z M183.77200000000005 5.84 l0 12.6 l6.48 0 l0 1.56 l-8.16 0 l0 -14.16 l1.68 0 z M220.22000000000003 5.84 l8.2 11.76 l0.04 0 l0 -11.76 l1.68 0 l0 14.16 l-2.12 0 l-8.2 -11.76 l-0.04 0 l0 11.76 l-1.68 0 l0 -14.16 l2.12 0 z M250.46400000000003 5.48 q3.2 0 5.28 2.1 t2.12 5.34 q-0.02 3.3 -2.14 5.36 t-5.26 2.08 q-3.2 0 -5.28 -2.11 t-2.12 -5.33 q0 -3.2 2.08 -5.3 t5.32 -2.14 z M244.86400000000003 12.92 q0 2.54 1.6 4.19 t4 1.69 q2.4 0 3.98 -1.68 t1.62 -4.2 q0 -2.46 -1.56 -4.15 t-4.06 -1.73 q-2.44 0.02 -3.99 1.71 t-1.59 4.17 z M280.288 5.84 l0 1.56 l-4.68 0 l0 12.6 l-1.68 0 l0 -12.6 l-4.68 0 l0 -1.56 l11.04 0 z M317.776 5.84 l0 1.56 l-4.68 0 l0 12.6 l-1.68 0 l0 -12.6 l-4.68 0 l0 -1.56 l11.04 0 z M336.56 5.48 q3.2 0 5.28 2.1 t2.12 5.34 q-0.02 3.3 -2.14 5.36 t-5.26 2.08 q-3.2 0 -5.28 -2.11 t-2.12 -5.33 q0 -3.2 2.08 -5.3 t5.32 -2.14 z M330.96000000000004 12.92 q0 2.54 1.6 4.19 t4 1.69 q2.4 0 3.98 -1.68 t1.62 -4.2 q0 -2.46 -1.56 -4.15 t-4.06 -1.73 q-2.44 0.02 -3.99 1.71 t-1.59 4.17 z M381.56800000000004 5.84 l0 1.56 l-7.22 0 l0 4.44 l6.74 0 l0 1.56 l-6.74 0 l0 5.04 l7.58 0 l0 1.56 l-9.26 0 l0 -14.16 l8.9 0 z M398.892 5.48 q2.58 0 3.96 1.66 l-1.38 1.2 q-0.8 -1.26 -2.58 -1.3 q-1.34 0 -2.18 0.64 t-0.84 1.74 q0 0.96 0.64 1.52 t2.4 1.1 q2.28 0.66 3.23 1.61 t0.95 2.57 q0 1.88 -1.4 3 t-3.58 1.14 q-1.46 0 -2.6 -0.52 t-1.76 -1.44 l1.44 -1.18 q0.46 0.76 1.28 1.17 t1.74 0.41 q1.26 0 2.17 -0.71 t0.91 -1.75 q0 -0.94 -0.53 -1.48 t-1.75 -0.92 l-1.62 -0.54 q-1.82 -0.62 -2.57 -1.55 t-0.75 -2.29 q0 -1.8 1.34 -2.93 t3.48 -1.15 z M422.476 5.48 q1.66 0 2.94 0.59 t2.06 1.63 l-1.46 1.06 q-0.64 -0.86 -1.58 -1.29 t-1.96 -0.43 q-2.26 0 -3.81 1.72 t-1.59 4.16 q0 2.52 1.54 4.19 t3.86 1.69 q2.54 0 4.1 -1.98 l1.26 1.06 q-1.86 2.48 -5.36 2.48 q-3.1 0 -5.13 -2.14 t-2.07 -5.3 q0 -3.16 2.05 -5.28 t5.15 -2.16 z M446.58 5.84 l6.02 14.16 l-1.96 0 l-1.44 -3.48 l-7.08 0 l-1.46 3.48 l-1.9 0 l6.24 -14.16 l1.58 0 z M445.71999999999997 8 l-2.94 6.96 l5.78 0 l-2.8 -6.96 l-0.04 0 z M469.00399999999996 5.84 q2.28 0 3.55 0.98 t1.31 2.9 q0 1.86 -1.24 2.87 t-3.32 1.05 l-2.92 0 l0 6.36 l-1.68 0 l0 -14.16 l4.3 0 z M469.304 12.08 q1.28 0 2.02 -0.62 t0.74 -1.72 t-0.73 -1.72 t-2.03 -0.62 l-2.92 0 l0 4.68 l2.92 0 z M495.688 5.84 l0 1.56 l-7.22 0 l0 4.44 l6.74 0 l0 1.56 l-6.74 0 l0 5.04 l7.58 0 l0 1.56 l-9.26 0 l0 -14.16 l8.9 0 z M526.336 5.84 l0 12.6 l6.48 0 l0 1.56 l-8.16 0 l0 -14.16 l1.68 0 z M546.5600000000001 5.84 l0 14.16 l-1.68 0 l0 -14.16 l1.68 0 z M569.084 5.84 l0 1.56 l-7.1 0 l0 4.68 l6.6 0 l0 1.56 l-6.6 0 l0 6.36 l-1.68 0 l0 -14.16 l8.78 0 z M590.548 5.84 l0 1.56 l-7.22 0 l0 4.44 l6.74 0 l0 1.56 l-6.74 0 l0 5.04 l7.58 0 l0 1.56 l-9.26 0 l0 -14.16 l8.9 0 z M606.192 17.96 l-1.64 4.8 l-1.54 0 l1.36 -4.8 l1.82 0 z M639.62 5.84 q2.24 0 3.46 0.91 t1.24 2.57 q0 1.22 -0.67 2.04 t-1.81 1.16 l0 0.04 q1.38 0.12 2.29 1.11 t0.91 2.37 q0 1.88 -1.42 2.91 t-4.04 1.05 l-4.28 0 l0 -14.16 l4.32 0 z M639.38 11.84 q1.54 0 2.34 -0.55 t0.8 -1.75 q0 -2.1 -2.96 -2.14 l-2.58 0 l0 4.44 l2.4 0 z M639.9 18.44 q1.52 0 2.43 -0.67 t0.91 -1.79 q0 -1.28 -0.9 -1.93 t-2.46 -0.65 l-2.9 0 l0 5.04 l2.92 0 z M659.7439999999999 5.84 l0 8.52 q0 2.16 0.92 3.28 t2.74 1.16 q1.82 -0.02 2.73 -1.15 t0.93 -3.21 l0 -8.6 l1.68 0 l0 8.82 q0 2.7 -1.4 4.19 t-3.94 1.51 q-2.5 0 -3.91 -1.51 t-1.43 -4.21 l0 -8.8 l1.68 0 z M691.9279999999999 5.84 l0 1.56 l-4.68 0 l0 12.6 l-1.68 0 l0 -12.6 l-4.68 0 l0 -1.56 l11.04 0 z M728.6959999999998 5.84 l0 1.56 l-7.1 0 l0 4.68 l6.6 0 l0 1.56 l-6.6 0 l0 6.36 l-1.68 0 l0 -14.16 l8.78 0 z M747.8399999999999 5.48 q3.2 0 5.28 2.1 t2.12 5.34 q-0.02 3.3 -2.14 5.36 t-5.26 2.08 q-3.2 0 -5.28 -2.11 t-2.12 -5.33 q0 -3.2 2.08 -5.3 t5.32 -2.14 z M742.2399999999999 12.92 q0 2.54 1.6 4.19 t4 1.69 q2.4 0 3.98 -1.68 t1.62 -4.2 q0 -2.46 -1.56 -4.15 t-4.06 -1.73 q-2.44 0.02 -3.99 1.71 t-1.59 4.17 z M772.0239999999999 5.84 q2.78 0 4.09 0.92 t1.31 2.96 q0 1.5 -0.89 2.47 t-2.65 1.29 l4.02 6.52 l-2.06 0 l-3.84 -6.36 l-2.16 0 l0 6.36 l-1.68 0 l0 -14.16 l3.86 0 z M771.8439999999999 12.08 q1.98 0 2.88 -0.55 t0.9 -1.79 q0 -1.2 -0.81 -1.77 t-2.51 -0.57 l-2.46 0 l0 4.68 l2 0 z M808.0719999999999 5.84 l0 12.6 l6.48 0 l0 1.56 l-8.16 0 l0 -14.16 l1.68 0 z M828.2959999999999 5.84 l0 14.16 l-1.68 0 l0 -14.16 l1.68 0 z M850.8199999999998 5.84 l0 1.56 l-7.1 0 l0 4.68 l6.6 0 l0 1.56 l-6.6 0 l0 6.36 l-1.68 0 l0 -14.16 l8.78 0 z M872.2839999999999 5.84 l0 1.56 l-7.22 0 l0 4.44 l6.74 0 l0 1.56 l-6.74 0 l0 5.04 l7.58 0 l0 1.56 l-9.26 0 l0 -14.16 l8.9 0 z M903.3719999999998 5.84 l8.2 11.76 l0.04 0 l0 -11.76 l1.68 0 l0 14.16 l-2.12 0 l-8.2 -11.76 l-0.04 0 l0 11.76 l-1.68 0 l0 -14.16 l2.12 0 z M933.6159999999999 5.48 q3.2 0 5.28 2.1 t2.12 5.34 q-0.02 3.3 -2.14 5.36 t-5.26 2.08 q-3.2 0 -5.28 -2.11 t-2.12 -5.33 q0 -3.2 2.08 -5.3 t5.32 -2.14 z M928.0159999999998 12.92 q0 2.54 1.6 4.19 t4 1.69 q2.4 0 3.98 -1.68 t1.62 -4.2 q0 -2.46 -1.56 -4.15 t-4.06 -1.73 q-2.44 0.02 -3.99 1.71 t-1.59 4.17 z M963.4399999999998 5.84 l0 1.56 l-4.68 0 l0 12.6 l-1.68 0 l0 -12.6 l-4.68 0 l0 -1.56 l11.04 0 z M1000.9279999999998 5.84 l0 1.56 l-4.68 0 l0 12.6 l-1.68 0 l0 -12.6 l-4.68 0 l0 -1.56 l11.04 0 z M1019.7119999999998 5.48 q3.2 0 5.28 2.1 t2.12 5.34 q-0.02 3.3 -2.14 5.36 t-5.26 2.08 q-3.2 0 -5.28 -2.11 t-2.12 -5.33 q0 -3.2 2.08 -5.3 t5.32 -2.14 z M1014.1119999999997 12.92 q0 2.54 1.6 4.19 t4 1.69 q2.4 0 3.98 -1.68 t1.62 -4.2 q0 -2.46 -1.56 -4.15 t-4.06 -1.73 q-2.44 0.02 -3.99 1.71 t-1.59 4.17 z M1064.72 5.84 l0 1.56 l-7.22 0 l0 4.44 l6.74 0 l0 1.56 l-6.74 0 l0 5.04 l7.58 0 l0 1.56 l-9.26 0 l0 -14.16 l8.9 0 z M1082.044 5.48 q2.58 0 3.96 1.66 l-1.38 1.2 q-0.8 -1.26 -2.58 -1.3 q-1.34 0 -2.18 0.64 t-0.84 1.74 q0 0.96 0.64 1.52 t2.4 1.1 q2.28 0.66 3.23 1.61 t0.95 2.57 q0 1.88 -1.4 3 t-3.58 1.14 q-1.46 0 -2.6 -0.52 t-1.76 -1.44 l1.44 -1.18 q0.46 0.76 1.28 1.17 t1.74 0.41 q1.26 0 2.17 -0.71 t0.91 -1.75 q0 -0.94 -0.53 -1.48 t-1.75 -0.92 l-1.62 -0.54 q-1.82 -0.62 -2.57 -1.55 t-0.75 -2.29 q0 -1.8 1.34 -2.93 t3.48 -1.15 z M1105.6280000000002 5.48 q1.66 0 2.94 0.59 t2.06 1.63 l-1.46 1.06 q-0.64 -0.86 -1.58 -1.29 t-1.96 -0.43 q-2.26 0 -3.81 1.72 t-1.59 4.16 q0 2.52 1.54 4.19 t3.86 1.69 q2.54 0 4.1 -1.98 l1.26 1.06 q-1.86 2.48 -5.36 2.48 q-3.1 0 -5.13 -2.14 t-2.07 -5.3 q0 -3.16 2.05 -5.28 t5.15 -2.16 z M1129.7320000000002 5.84 l6.02 14.16 l-1.96 0 l-1.44 -3.48 l-7.08 0 l-1.46 3.48 l-1.9 0 l6.24 -14.16 l1.58 0 z M1128.872 8 l-2.94 6.96 l5.78 0 l-2.8 -6.96 l-0.04 0 z M1152.1560000000002 5.84 q2.28 0 3.55 0.98 t1.31 2.9 q0 1.86 -1.24 2.87 t-3.32 1.05 l-2.92 0 l0 6.36 l-1.68 0 l0 -14.16 l4.3 0 z M1152.4560000000001 12.08 q1.28 0 2.02 -0.62 t0.74 -1.72 t-0.73 -1.72 t-2.03 -0.62 l-2.92 0 l0 4.68 l2.92 0 z M1178.8400000000004 5.84 l0 1.56 l-7.22 0 l0 4.44 l6.74 0 l0 1.56 l-6.74 0 l0 5.04 l7.58 0 l0 1.56 l-9.26 0 l0 -14.16 l8.9 0 z M1209.4280000000006 5.84 l0 8.52 q0 2.16 0.92 3.28 t2.74 1.16 q1.82 -0.02 2.73 -1.15 t0.93 -3.21 l0 -8.6 l1.68 0 l0 8.82 q0 2.7 -1.4 4.19 t-3.94 1.51 q-2.5 0 -3.91 -1.51 t-1.43 -4.21 l0 -8.8 l1.68 0 z M1236.2520000000006 5.48 q2.58 0 3.96 1.66 l-1.38 1.2 q-0.8 -1.26 -2.58 -1.3 q-1.34 0 -2.18 0.64 t-0.84 1.74 q0 0.96 0.64 1.52 t2.4 1.1 q2.28 0.66 3.23 1.61 t0.95 2.57 q0 1.88 -1.4 3 t-3.58 1.14 q-1.46 0 -2.6 -0.52 t-1.76 -1.44 l1.44 -1.18 q0.46 0.76 1.28 1.17 t1.74 0.41 q1.26 0 2.17 -0.71 t0.91 -1.75 q0 -0.94 -0.53 -1.48 t-1.75 -0.92 l-1.62 -0.54 q-1.82 -0.62 -2.57 -1.55 t-0.75 -2.29 q0 -1.8 1.34 -2.93 t3.48 -1.15 z M1255.6760000000006 18.92 q0 0.48 -0.36 0.84 t-0.84 0.36 q-0.46 0 -0.83 -0.36 t-0.37 -0.84 t0.35 -0.84 t0.85 -0.36 t0.85 0.35 t0.35 0.85 z"></path></g>
			</g>
		</svg>
	